<svg xmlns="http://www.w3.org/2000/svg" width="120" height="18" viewBox="0 0 120 18" fill="none">
  <g stroke="#C9A227" stroke-width="1.4" fill="none" opacity="0.9">
    <path d="M0 9 L6 3 L12 9 L18 3 L24 9 L30 3 L36 9 L42 3 L48 9 L54 3 L60 9 L66 3 L72 9 L78 3 L84 9 L90 3 L96 9 L102 3 L108 9 L114 3 L120 9"/>
    <path d="M0 9 L6 15 L12 9 L18 15 L24 9 L30 15 L36 9 L42 15 L48 9 L54 15 L60 9 L66 15 L72 9 L78 15 L84 9 L90 15 L96 9 L102 15 L108 9 L114 15 L120 9"/>
  </g>
  <g opacity="0.85">
    <rect x="9" y="7.5" width="3" height="3" transform="rotate(45 10.5 9)" fill="#7A6BC4"/>
    <rect x="33" y="7.5" width="3" height="3" transform="rotate(45 34.5 9)" fill="#0E7A52"/>
    <rect x="57" y="7.5" width="3" height="3" transform="rotate(45 58.5 9)" fill="#7A6BC4"/>
    <rect x="81" y="7.5" width="3" height="3" transform="rotate(45 82.5 9)" fill="#0E7A52"/>
    <rect x="105" y="7.5" width="3" height="3" transform="rotate(45 106.5 9)" fill="#7A6BC4"/>
  </g>
</svg>
