<svg xmlns="http://www.w3.org/2000/svg" width="80" height="80" viewBox="0 0 80 80" fill="none">
  <!-- Seamless sadu-weave: nested chevrons + diamond eyes, the najdi loom vocabulary -->
  <g stroke-width="1.2" fill="none">
    <!-- horizontal chevron bands -->
    <path d="M0 20 L20 4 L40 20 L60 4 L80 20" stroke="#0E7A52" opacity=".5"/>
    <path d="M0 28 L20 12 L40 28 L60 12 L80 28" stroke="#C9A227" opacity=".5"/>
    <path d="M0 60 L20 44 L40 60 L60 44 L80 60" stroke="#7A6BC4" opacity=".5"/>
    <path d="M0 68 L20 52 L40 68 L60 52 L80 68" stroke="#C9A227" opacity=".5"/>
  </g>
  <g fill="none" stroke-width="1.1">
    <!-- diamond eyes -->
    <path d="M20 34 L26 40 L20 46 L14 40 Z" stroke="#0E7A52" opacity=".45"/>
    <path d="M60 34 L66 40 L60 46 L54 40 Z" stroke="#7A6BC4" opacity=".45"/>
    <path d="M40 34 L46 40 L40 46 L34 40 Z" stroke="#C9A227" opacity=".5"/>
  </g>
  <g fill="#C9A227" opacity=".4">
    <circle cx="40" cy="40" r="1.4"/>
    <circle cx="20" cy="40" r="1.2"/>
    <circle cx="60" cy="40" r="1.2"/>
  </g>
</svg>
